<svg width="31" height="30" viewBox="0 0 31 30" fill="none" xmlns="http://www.w3.org/2000/svg">
<g clip-path="url(#clip0_3523_1151)">
<rect x="4.25" y="8.75" width="22.5" height="8.75" fill="#FBE300"/>
<path d="M15.5 1.875C23.4391 1.875 29.875 6.8587 29.875 13.0081C29.875 19.1561 23.4391 24.1398 15.5 24.1398C14.7095 24.1402 13.9197 24.0902 13.1357 23.9902L7.10089 27.9116C6.415 28.272 6.17268 28.2326 6.4547 27.3498L7.67589 22.3471C3.73304 20.3612 1.125 16.92 1.125 13.0081C1.125 6.86006 7.56089 1.875 15.5 1.875ZM23.587 12.8381L25.5995 10.9012C25.7156 10.7813 25.7804 10.6214 25.7802 10.4551C25.78 10.2887 25.7148 10.129 25.5984 10.0094C25.482 9.8899 25.3234 9.81991 25.1561 9.81423C24.9887 9.80854 24.8257 9.8676 24.7014 9.97896L22.0618 12.5171V10.4197C22.0618 10.2494 21.9938 10.0861 21.8726 9.96569C21.7514 9.84529 21.587 9.77765 21.4157 9.77765C21.2443 9.77765 21.0799 9.84529 20.9587 9.96569C20.8375 10.0861 20.7695 10.2494 20.7695 10.4197V13.8976C20.7452 13.9969 20.7452 14.1004 20.7695 14.1996V16.1569C20.7695 16.3272 20.8375 16.4905 20.9587 16.6109C21.0799 16.7313 21.2443 16.7989 21.4157 16.7989C21.587 16.7989 21.7514 16.7313 21.8726 16.6109C21.9938 16.4905 22.0618 16.3272 22.0618 16.1569V14.303L22.6464 13.7412L24.6014 16.5065C24.6502 16.5755 24.7123 16.6343 24.7839 16.6795C24.8556 16.7248 24.9356 16.7555 25.0192 16.77C25.1029 16.7846 25.1886 16.7826 25.2715 16.7642C25.3544 16.7458 25.4328 16.7114 25.5023 16.6629C25.5718 16.6144 25.6309 16.5528 25.6765 16.4815C25.722 16.4103 25.7529 16.3309 25.7676 16.2478C25.7822 16.1647 25.7802 16.0795 25.7617 15.9972C25.7432 15.9148 25.7085 15.8369 25.6597 15.7679L23.587 12.8367V12.8381ZM19.5373 15.455H17.5385V10.4401C17.5309 10.2751 17.4595 10.1194 17.3393 10.0053C17.2191 9.89124 17.0592 9.8276 16.893 9.8276C16.7268 9.8276 16.5669 9.89124 16.4467 10.0053C16.3265 10.1194 16.2551 10.2751 16.2475 10.4401V16.0971C16.2475 16.4507 16.535 16.7391 16.8923 16.7391H19.5373C19.7087 16.7391 19.8731 16.6714 19.9942 16.551C20.1154 16.4306 20.1835 16.2673 20.1835 16.0971C20.1835 15.9268 20.1154 15.7635 19.9942 15.6431C19.8731 15.5227 19.7087 15.455 19.5373 15.455ZM11.5188 13.9697L12.4717 11.6479L13.3451 13.9697H11.5188ZM14.9729 14.6335L14.9757 14.6117C14.9753 14.45 14.9132 14.2944 14.8018 14.1765L13.3698 10.368C13.3097 10.1865 13.1954 10.0275 13.042 9.9123C12.8886 9.79709 12.7035 9.73114 12.5114 9.72324C12.3178 9.7224 12.1286 9.78012 11.9689 9.88873C11.8092 9.99734 11.6866 10.1517 11.6174 10.3312L9.34339 15.874C9.3113 15.952 9.295 16.0356 9.29541 16.1199C9.29583 16.2042 9.31296 16.2877 9.34582 16.3654C9.37869 16.4431 9.42664 16.5137 9.48694 16.573C9.54725 16.6323 9.61872 16.6793 9.69729 16.7112C9.77586 16.7431 9.85998 16.7593 9.94484 16.7588C10.0297 16.7584 10.1137 16.7414 10.1919 16.7088C10.2702 16.6761 10.3412 16.6285 10.4009 16.5686C10.4606 16.5086 10.5078 16.4376 10.5399 16.3596L10.9917 15.2537H13.8257L14.235 16.3419C14.2628 16.4232 14.3068 16.4982 14.3643 16.5623C14.4218 16.6265 14.4917 16.6785 14.5699 16.7153C14.648 16.7521 14.7328 16.773 14.8191 16.7767C14.9055 16.7803 14.9918 16.7668 15.0728 16.7367C15.1538 16.7067 15.2279 16.6608 15.2907 16.6018C15.3536 16.5427 15.4039 16.4718 15.4386 16.3931C15.4733 16.3144 15.4918 16.2296 15.4929 16.1437C15.4941 16.0578 15.4779 15.9726 15.4452 15.893L14.9729 14.6335ZM10.4249 10.4469C10.4249 10.2768 10.357 10.1137 10.2362 9.99337C10.1153 9.87301 9.95126 9.80521 9.78012 9.80485H5.33756C5.16618 9.80485 5.00182 9.87249 4.88063 9.99289C4.75945 10.1133 4.69137 10.2766 4.69137 10.4469C4.69137 10.6171 4.75945 10.7804 4.88063 10.9008C5.00182 11.0212 5.16618 11.0889 5.33756 11.0889H6.92565V16.1705C6.92565 16.3408 6.99374 16.5041 7.11492 16.6245C7.2361 16.7449 7.40047 16.8125 7.57185 16.8125C7.74323 16.8125 7.90759 16.7449 8.02877 16.6245C8.14995 16.5041 8.21804 16.3408 8.21804 16.1705V11.0889H9.77875C10.1361 11.0889 10.4249 10.8005 10.4249 10.4469Z" fill="#683D3D"/>
</g>
<defs>
<clipPath id="clip0_3523_1151">
<rect width="30" height="30" fill="white" transform="translate(0.5)"/>
</clipPath>
</defs>
</svg>
