<svg width="25" height="24" viewBox="0 0 25 24" fill="none" xmlns="http://www.w3.org/2000/svg">
<path fill-rule="evenodd" clip-rule="evenodd" d="M4.27212 8.39894C3.78495 8.77786 3.5 9.36047 3.5 9.97765V19.9995C3.5 20.5299 3.71071 21.0386 4.08579 21.4137C4.46086 21.7888 4.96957 21.9995 5.5 21.9995H10V15.9995C10 14.8949 10.8954 13.9995 12 13.9995H13C14.1046 13.9995 15 14.8949 15 15.9995V21.9995H19.5C20.0304 21.9995 20.5391 21.7888 20.9142 21.4137C21.2893 21.0386 21.5 20.5299 21.5 19.9995V9.97765C21.5 9.36047 21.2151 8.77786 20.7279 8.39894L13.7279 2.9545C13.0057 2.39277 11.9943 2.39277 11.2721 2.9545L4.27212 8.39894Z" fill="#C6C6C6"/>
<path d="M4.27212 8.39894L3.65818 7.60959H3.65818L4.27212 8.39894ZM4.08579 21.4137L3.37868 22.1208L3.37868 22.1208L4.08579 21.4137ZM10 21.9995V22.9995C10.5523 22.9995 11 22.5518 11 21.9995H10ZM15 21.9995H14C14 22.5518 14.4477 22.9995 15 22.9995V21.9995ZM20.9142 21.4137L21.6213 22.1208L21.6213 22.1208L20.9142 21.4137ZM20.7279 8.39894L21.3418 7.60959V7.60959L20.7279 8.39894ZM13.7279 2.9545L14.3418 2.16515V2.16515L13.7279 2.9545ZM11.2721 2.9545L11.8861 3.74385L11.2721 2.9545ZM4.5 9.97765C4.5 9.66906 4.64247 9.37775 4.88606 9.1883L3.65818 7.60959C2.92742 8.17796 2.5 9.05188 2.5 9.97765H4.5ZM4.5 19.9995V9.97765H2.5V19.9995H4.5ZM4.79289 20.7066C4.60536 20.5191 4.5 20.2647 4.5 19.9995H2.5C2.5 20.7951 2.81607 21.5582 3.37868 22.1208L4.79289 20.7066ZM5.5 20.9995C5.23478 20.9995 4.98043 20.8941 4.79289 20.7066L3.37868 22.1208C3.94129 22.6834 4.70435 22.9995 5.5 22.9995V20.9995ZM10 20.9995H5.5V22.9995H10V20.9995ZM11 21.9995V15.9995H9V21.9995H11ZM11 15.9995C11 15.4472 11.4477 14.9995 12 14.9995V12.9995C10.3431 12.9995 9 14.3426 9 15.9995H11ZM12 14.9995H13V12.9995H12V14.9995ZM13 14.9995C13.5523 14.9995 14 15.4472 14 15.9995H16C16 14.3426 14.6569 12.9995 13 12.9995V14.9995ZM14 15.9995V21.9995H16V15.9995H14ZM19.5 20.9995H15V22.9995H19.5V20.9995ZM20.2071 20.7066C20.0196 20.8941 19.7652 20.9995 19.5 20.9995V22.9995C20.2957 22.9995 21.0587 22.6834 21.6213 22.1208L20.2071 20.7066ZM20.5 19.9995C20.5 20.2647 20.3946 20.519 20.2071 20.7066L21.6213 22.1208C22.1839 21.5582 22.5 20.7951 22.5 19.9995H20.5ZM20.5 9.97765V19.9995H22.5V9.97765H20.5ZM20.1139 9.1883C20.3575 9.37775 20.5 9.66906 20.5 9.97765H22.5C22.5 9.05188 22.0726 8.17796 21.3418 7.60959L20.1139 9.1883ZM13.1139 3.74385L20.1139 9.1883L21.3418 7.60959L14.3418 2.16515L13.1139 3.74385ZM11.8861 3.74385C12.2472 3.46299 12.7528 3.46299 13.1139 3.74385L14.3418 2.16515C13.2585 1.32256 11.7415 1.32255 10.6582 2.16515L11.8861 3.74385ZM4.88606 9.1883L11.8861 3.74385L10.6582 2.16515L3.65818 7.60959L4.88606 9.1883Z" fill="#C6C6C6"/>
</svg>
