<svg width="30" height="30" viewBox="0 0 30 30" fill="none" xmlns="http://www.w3.org/2000/svg">
<path fill-rule="evenodd" clip-rule="evenodd" d="M21.5769 11.284L9.18536 23.6753L6.00014 24.0003L6.32516 20.8152L18.7168 8.42386L21.5769 11.284ZM22.284 10.5769L23.4085 9.45247C24.1983 8.66267 24.1983 7.38214 23.4085 6.59234C22.6187 5.80254 21.3381 5.80254 20.5483 6.59234L19.4239 7.71676L22.284 10.5769ZM24.1156 10.1596L9.64087 24.634L6.10166 24.9951C5.47143 25.0595 4.94099 24.529 5.0053 23.8988L5.36644 20.3597L19.8412 5.88524C21.0216 4.70492 22.9353 4.70492 24.1156 5.88524C25.296 7.06557 25.296 8.97925 24.1156 10.1596Z" fill="black"/>
</svg>
