<svg width="25" height="24" viewBox="0 0 25 24" fill="none" xmlns="http://www.w3.org/2000/svg">
<path fill-rule="evenodd" clip-rule="evenodd" d="M20.5 19V20V21V22H4.5V21V20V19C4.5 17.9391 4.92143 16.9217 5.67157 16.1716C6.42172 15.4214 7.43913 15 8.5 15H16.5C17.5609 15 18.5783 15.4214 19.3284 16.1716C20.0786 16.9217 20.5 17.9391 20.5 19Z" fill="black"/>
<path d="M20.5 22V23C21.0523 23 21.5 22.5523 21.5 22H20.5ZM4.5 22H3.5C3.5 22.5523 3.94772 23 4.5 23V22ZM5.67157 16.1716L6.37868 16.8787L6.37868 16.8787L5.67157 16.1716ZM19.3284 16.1716L18.6213 16.8787L19.3284 16.1716ZM21.5 20V19H19.5V20H21.5ZM19.5 20V21H21.5V20H19.5ZM19.5 21V22H21.5V21H19.5ZM20.5 21H4.5V23H20.5V21ZM5.5 22V21H3.5V22H5.5ZM5.5 21V20H3.5V21H5.5ZM3.5 19V20H5.5V19H3.5ZM4.96447 15.4645C4.02678 16.4021 3.5 17.6739 3.5 19H5.5C5.5 18.2044 5.81607 17.4413 6.37868 16.8787L4.96447 15.4645ZM8.5 14C7.17392 14 5.90215 14.5268 4.96447 15.4645L6.37868 16.8787C6.94129 16.3161 7.70435 16 8.5 16V14ZM16.5 14H8.5V16H16.5V14ZM20.0355 15.4645C19.0979 14.5268 17.8261 14 16.5 14V16C17.2956 16 18.0587 16.3161 18.6213 16.8787L20.0355 15.4645ZM21.5 19C21.5 17.6739 20.9732 16.4021 20.0355 15.4645L18.6213 16.8787C19.1839 17.4413 19.5 18.2044 19.5 19H21.5Z" fill="black"/>
<path d="M12.5 11C14.7091 11 16.5 9.20914 16.5 7C16.5 4.79086 14.7091 3 12.5 3C10.2909 3 8.5 4.79086 8.5 7C8.5 9.20914 10.2909 11 12.5 11Z" fill="black" stroke="black" stroke-width="2" stroke-linecap="round" stroke-linejoin="round"/>
</svg>
