<svg width="25" height="24" viewBox="0 0 25 24" fill="none" xmlns="http://www.w3.org/2000/svg">
<path fill-rule="evenodd" clip-rule="evenodd" d="M8.5 14C7.17392 14 5.90215 14.5268 4.96447 15.4645C4.02678 16.4021 3.5 17.6739 3.5 19V21C3.5 21.5523 3.94772 22 4.5 22H20.5C21.0523 22 21.5 21.5523 21.5 21V19C21.5 17.6739 20.9732 16.4021 20.0355 15.4645C19.0979 14.5268 17.8261 14 16.5 14H8.5ZM19.5 20V19C19.5 18.2044 19.1839 17.4413 18.6213 16.8787C18.0587 16.3161 17.2956 16 16.5 16H8.5C7.70435 16 6.94129 16.3161 6.37868 16.8787C5.81607 17.4413 5.5 18.2044 5.5 19V20H19.5Z" fill="#C6C6C6"/>
<path d="M12.5 11C14.7091 11 16.5 9.20914 16.5 7C16.5 4.79086 14.7091 3 12.5 3C10.2909 3 8.5 4.79086 8.5 7C8.5 9.20914 10.2909 11 12.5 11Z" stroke="#C6C6C6" stroke-width="2" stroke-linecap="round" stroke-linejoin="round"/>
</svg>
