<svg width="19" height="18" viewBox="0 0 19 18" fill="none" xmlns="http://www.w3.org/2000/svg">
<path fill-rule="evenodd" clip-rule="evenodd" d="M14.9682 13.9991C15.9708 12.6837 17.1231 9.38974 14.5017 5.49039C14.7435 6.2017 14.8591 7.667 13.7335 7.24021C13.4181 7.12065 12.7689 6.46346 12.4958 5.23431C12.1828 4.09622 10.7289 1.81149 7.41703 1.77734C8.25637 2.68782 9.4947 5.45688 6.56345 6.2586C5.93929 6.42932 5.00141 6.38664 5.41113 4.16735C3.23444 6.2586 2.38854 10.1168 3.20797 12.4043C3.2107 12.4119 3.2135 12.4195 3.21637 12.4271C3.76904 14.9169 6.33759 16.7999 9.42276 16.7999C11.8147 16.7999 13.8961 15.668 14.9682 13.9991Z" fill="#EB003B"/>
<path d="M9.5 7.80078C9.5 7.80078 13.4017 11.4777 12.3059 13.8338C11.2101 16.1898 7.78986 16.1898 6.69408 13.8338C5.5983 11.4777 9.5 7.80078 9.5 7.80078Z" fill="#FF9500"/>
</svg>
